<svg xmlns="http://www.w3.org/2000/svg" viewBox="0 0 240 299"><defs><style>.cls-1,.cls-3,.cls-4{fill:none;}.cls-1,.cls-4{stroke:#494949;stroke-linecap:round;stroke-width:2px;}.cls-1{stroke-miterlimit:10;}.cls-2{fill:#494949;}.cls-4{stroke-linejoin:round;}.cls-5{fill:#fff;}</style></defs><g id="Layer_2" data-name="Layer 2"><g id="Layer_2-2" data-name="Layer 2"><path class="cls-1" d="M1,1V298H239V1ZM236.39,296H1.87V248H236.39Z"/><rect class="cls-2" x="2" y="246" width="237" height="52"/><path class="cls-3" d="M177.7,149.75,168.26,120a24.35,24.35,0,0,0-23.21-17H92.8a24.34,24.34,0,0,0-19,9.09l-14.45,18a24.37,24.37,0,0,0-5.22,18l4.41,38.53a24.34,24.34,0,0,0,24,21.58l63.32.61a24.34,24.34,0,0,0,23.51-17.18l8.42-27.37A24.3,24.3,0,0,0,177.7,149.75Zm-52.88-22.09a12.16,12.16,0,0,1,3.5-3.86,9.62,9.62,0,0,1,12.81,1.41A16.67,16.67,0,0,1,145.38,136c0,.4,0,.8,0,1.21a20.52,20.52,0,0,1-.74,5.61,15.45,15.45,0,0,1-2.51,5.1c-2.26,3-5.25,4.76-9.35,4.34a9.77,9.77,0,0,1-6.5-3.58,15.28,15.28,0,0,1-1.35-1.82,3.35,3.35,0,0,1-.21-.36,14.93,14.93,0,0,1-1.09-2.24c-.07-.19-.14-.38-.2-.58s-.19-.57-.28-.86a21.86,21.86,0,0,1-.58-2.92A19.16,19.16,0,0,1,124.82,127.66Zm-24.39-1.45a10.23,10.23,0,0,1,6.34-4.48,9.48,9.48,0,0,1,9.3,3,15.82,15.82,0,0,1,4.14,9.33,4.6,4.6,0,0,1,.06.52,20.74,20.74,0,0,1,0,3.86,20.31,20.31,0,0,1-.85,4.39,15,15,0,0,1-2.63,5,9.75,9.75,0,0,1-8.72,4,9.87,9.87,0,0,1-7.18-4,15.4,15.4,0,0,1-2.65-5,19,19,0,0,1-.86-4.84A18,18,0,0,1,100.43,126.21ZM84.14,164.83a13,13,0,0,1-2.76-10.41,11.77,11.77,0,0,1,2.86-6.53,8.24,8.24,0,0,1,12.63,0c2,2.19,3,5.21,3,9.41a11.81,11.81,0,0,1-3.25,7.92A8.18,8.18,0,0,1,84.14,164.83Zm62.74,16.85c-1.18,4.09-4,6.35-8.56,6.58a7.19,7.19,0,0,1-3.36-.69,34.94,34.94,0,0,1-6-3.42c-3.21-2.39-6.73-2.87-10.61-2.21a11.75,11.75,0,0,0-5,2,21.4,21.4,0,0,1-7.56,3.65,8.16,8.16,0,0,1-5.28-.23,7.55,7.55,0,0,1-2.54-1.83c-3.88-4.43-4.45-9.41-2.3-14.64.08-.21.17-.42.26-.62a2,2,0,0,1,.1-.21c.13-.3.26-.58.4-.87,0-.12.11-.23.16-.35.17-.32.33-.63.51-1,.06-.12.12-.24.19-.36s.23-.4.35-.6l.26-.43c.12-.2.24-.4.38-.59s.2-.32.31-.47a24.83,24.83,0,0,1,1.95-2.54l.34-.37c.1-.12.22-.25.35-.38s.24-.27.37-.4l.33-.33c.21-.2.41-.4.61-.58s.35-.33.53-.48a4.59,4.59,0,0,1,.41-.36c.16-.15.32-.28.48-.41s.37-.3.56-.43c0,0,0,0,0,0,.19-.16.37-.3.57-.44l.78-.56.12-.07c.18-.13.37-.25.55-.36a.23.23,0,0,1,.11-.07l.49-.31a1.2,1.2,0,0,1,.21-.13c.3-.19.6-.36.91-.53,4.1-2.29,8.69-3,13.38-3,4.79.08,9.39.82,13.51,3.13a16.13,16.13,0,0,1,4.24,3.26l1,1.16c.21.26.42.51.62.77l.66.85c.21.26.41.53.6.8.44.6.86,1.2,1.25,1.81.14.21.27.43.39.64l.3.49.14.25c.26.45.5.9.73,1.36q.2.38.36.75c.18.37.35.76.5,1.15s.3.76.43,1.14A16.93,16.93,0,0,1,146.88,181.68Zm12.29-16.74a8.09,8.09,0,0,1-11.69-.2c-2.8-2.89-3.6-6.38-3.33-10.15a12.22,12.22,0,0,1,2.48-6.73,8.29,8.29,0,0,1,13.57,0c1.84,2.38,2.56,5.1,2.54,9.11A11.51,11.51,0,0,1,159.17,164.94Z"/><path class="cls-2" d="M146.46,171.2c-.13-.38-.28-.77-.43-1.14s-.32-.78-.5-1.15-.23-.5-.36-.75c-.23-.46-.47-.91-.73-1.36l-.14-.25-.3-.49c-.12-.21-.25-.43-.39-.64-.39-.61-.81-1.21-1.25-1.81-.19-.27-.39-.54-.6-.8l-.66-.85c-.2-.26-.41-.51-.62-.77l-1-1.16a16.13,16.13,0,0,0-4.24-3.26c-4.12-2.31-8.72-3.05-13.51-3.13-4.69.07-9.28.75-13.38,3-.31.17-.61.34-.91.53a1.2,1.2,0,0,0-.21.13l-.49.31a.23.23,0,0,0-.11.07c-.18.11-.37.23-.55.36l-.12.07-.78.56c-.2.14-.38.28-.57.44,0,0,0,0,0,0-.19.13-.38.29-.56.43s-.32.26-.48.41a4.59,4.59,0,0,0-.41.36c-.18.15-.36.31-.53.48s-.4.38-.61.58l-.33.33c-.13.13-.25.26-.37.4s-.25.26-.35.38l-.34.37a24.83,24.83,0,0,0-1.95,2.54c-.11.15-.21.31-.31.47s-.26.39-.38.59l-.26.43c-.12.2-.24.39-.35.6s-.13.24-.19.36c-.18.32-.34.63-.51,1-.05.12-.11.23-.16.35-.14.29-.27.57-.4.87a2,2,0,0,0-.1.21c-.09.2-.18.41-.26.62-2.15,5.23-1.58,10.21,2.3,14.64a7.55,7.55,0,0,0,2.54,1.83,8.16,8.16,0,0,0,5.28.23,21.4,21.4,0,0,0,7.56-3.65,11.75,11.75,0,0,1,5-2c3.88-.66,7.4-.18,10.61,2.21a34.94,34.94,0,0,0,6,3.42,7.19,7.19,0,0,0,3.36.69c4.56-.23,7.38-2.49,8.56-6.58A16.93,16.93,0,0,0,146.46,171.2Z"/><path class="cls-2" d="M145.38,136a16.67,16.67,0,0,0-4.25-10.78,9.62,9.62,0,0,0-12.81-1.41,12.16,12.16,0,0,0-3.5,3.86,19.16,19.16,0,0,0-2.25,12.23,21.86,21.86,0,0,0,.58,2.92c.09.29.18.57.28.86s.13.39.2.58a14.93,14.93,0,0,0,1.09,2.24,3.35,3.35,0,0,0,.21.36,15.28,15.28,0,0,0,1.35,1.82,9.77,9.77,0,0,0,6.5,3.58c4.1.42,7.09-1.34,9.35-4.34a15.45,15.45,0,0,0,2.51-5.1,20.52,20.52,0,0,0,.74-5.61C145.38,136.79,145.41,136.39,145.38,136Z"/><path class="cls-2" d="M116.07,124.71a9.48,9.48,0,0,0-9.3-3,10.23,10.23,0,0,0-6.34,4.48,18,18,0,0,0-3,11.76,19,19,0,0,0,.86,4.84,15.4,15.4,0,0,0,2.65,5,9.87,9.87,0,0,0,7.18,4,9.75,9.75,0,0,0,8.72-4,15,15,0,0,0,2.63-5,22.22,22.22,0,0,0,1-6.41c0-.6-.07-1.49-.19-2.36A15.82,15.82,0,0,0,116.07,124.71Z"/><path class="cls-2" d="M162.74,157a11.51,11.51,0,0,1-3.57,8,8.09,8.09,0,0,1-11.69-.2c-2.8-2.89-3.6-6.38-3.33-10.15a12.22,12.22,0,0,1,2.48-6.73,8.29,8.29,0,0,1,13.57,0C162,150.22,162.76,152.94,162.74,157Z"/><path class="cls-2" d="M99.9,157.27a11.81,11.81,0,0,1-3.25,7.92,8.18,8.18,0,0,1-12.51-.36,13,13,0,0,1-2.76-10.41,11.77,11.77,0,0,1,2.86-6.53,8.24,8.24,0,0,1,12.63,0C98.83,150.05,99.9,153.07,99.9,157.27Z"/><path class="cls-4" d="M217.52,116.3c2.87,13.46-10.06,12.67-10.06,12.67L119.84,65.6,31.5,129.76c-13.65-4-7.9-13.46-7.9-13.46L119.32,47l.52-.38Z"/><polyline class="cls-4" points="44.36 120.84 45.14 217.69 195.97 216.9 196.94 121.84"/><polyline class="cls-4" points="179.85 88 179.85 71 191.64 71 191.64 96"/><path class="cls-5" d="M26.17,262.36h5.14l5.54,17.88H32.34l-1-4.11H26l-1,4.11H20.63Zm.68,10.46h3.64l-.38-1.51c-.48-1.78-.94-3.91-1.42-5.74H28.6c-.43,1.87-.91,4-1.37,5.74Z"/><path class="cls-5" d="M38.73,262.36h4.36l4.44,8.56,1.76,4h.12a60.71,60.71,0,0,1-.58-6.6v-5.92h4.08v17.88H48.54l-4.41-8.62-1.76-3.91h-.12c.2,2,.56,4.44.56,6.6v5.93H38.73Z"/><path class="cls-5" d="M57.06,262.36h4.3v17.88h-4.3Z"/><path class="cls-5" d="M65.46,262.36h4.63l2.84,7.72c.36,1,.64,2.16,1,3.24H74c.36-1.08.65-2.2,1-3.24l2.74-7.72h4.66v17.88H78.49v-6.12a53.72,53.72,0,0,1,.58-6.2H79l-1.49,4.28-2.4,6.53H72.71l-2.42-6.53-1.44-4.28h-.1a58.5,58.5,0,0,1,.55,6.2v6.12H65.46Z"/><path class="cls-5" d="M89.8,262.36h5.13l5.55,17.88H96l-1-4.11H89.65l-1,4.11H84.25Zm.67,10.46h3.65l-.39-1.51c-.48-1.78-.93-3.91-1.41-5.74h-.1c-.43,1.87-.91,4-1.37,5.74Z"/><path class="cls-5" d="M102.35,262.36h4.3v14.28h7v3.6H102.35Z"/><path class="cls-5" d="M121.07,278l2.45-2.95a7.08,7.08,0,0,0,4.32,1.83c1.58,0,2.33-.6,2.33-1.56s-1-1.37-2.52-2l-2.29-1a5.22,5.22,0,0,1-3.62-4.9c0-3,2.69-5.4,6.48-5.4A8.31,8.31,0,0,1,134,264.4l-2.14,2.68a5.83,5.83,0,0,0-3.67-1.36c-1.32,0-2.11.52-2.11,1.46s1.1,1.39,2.69,2l2.23.88c2.21.89,3.53,2.38,3.53,4.9,0,3-2.5,5.59-6.82,5.59A10,10,0,0,1,121.07,278Z"/><path class="cls-5" d="M137.53,262.36h4.3v6.81h5.88v-6.81H152v17.88h-4.27v-7.35h-5.88v7.35h-4.3Z"/><path class="cls-5" d="M156.11,262.36h11.33v3.57h-7v3.31h6v3.6h-6v3.8h7.3v3.6H156.11Z"/><path class="cls-5" d="M171.23,262.36h4.29v14.28h7v3.6H171.23Z"/><path class="cls-5" d="M185.75,265.93h-4.83v-3.57h14v3.57H190v14.31h-4.29Z"/><path class="cls-5" d="M197.65,262.36H209v3.57h-7v3.31h6v3.6h-6v3.8h7.3v3.6h-11.6Z"/><path class="cls-5" d="M212.77,262.36h6.55c3.82,0,7,1.32,7,5.64a5.31,5.31,0,0,1-3.07,5.16l4,7.08h-4.8L219.13,274h-2.06v6.29h-4.3Zm6.22,8.2c2,0,3.14-.88,3.14-2.56s-1.1-2.24-3.14-2.24h-1.92v4.8Z"/></g></g></svg>