<svg xmlns="http://www.w3.org/2000/svg" viewBox="0 0 512.28 509.5"><defs><style>.cls-1{fill:#231f20;}</style></defs><g id="Layer_2" data-name="Layer 2"><g id="Layer_2-2" data-name="Layer 2"><path class="cls-1" d="M382.07,167.92s8.55,4.28,66.3,4.65,63.91-55.77,63.91-55.77c-38.75,1.63-76-47.26-76-47.26-56-27.82-78.23-28.19-86.06-26.46C374.14,32,373.51,0,373.51,0c-52,5.31-65.58,26.06-65.58,26.06-6.42-2.14-30.65,82.69-30.65,82.69C269.44,157.94,196.72,234,196.72,234,144,283,118.81,412.44,118.81,412.44c-34.43,12.83-49.67,1.42-49.67,1.42C37,409.58,0,298.17,0,298.17c0,76.08,24.21,107.15,24.21,107.15C68.41,500.14,175.34,509.5,175.34,509.5l4.79-.1c-8.33-5.86-45.82-35.11-43.29-84.56,0,0-1.42-58,44.2-78.17,0,0,14.32-8,26.61-7.85s17.27,7,20.2,15.92c0,0,1,14.68-4,16.21,0,0-9.41,2.92-11.17-7.69a7.85,7.85,0,0,0-7.45-6.68c-7.68-.23-26.23,4.57-37.7,21.49-18.05,26.68-18.29,45.11-10.21,69.82s28,56.08,63.21,51.8c0,0-20.92-65.11,9-113.11,0,0,32.32-39.45,70.82-43.72,0,0,10.45-5.23-8.56-18.06,0,0-9-.45-11.53-7.89a4.63,4.63,0,0,1-2.94-3.31A4.5,4.5,0,0,1,277,310c.33-2.82,2-5,3.93-5l.29-.22c.32-.9.66-1.82,1.09-2.79,0,0,8.08-25.19,12.35-24.71,0,0,7.13-7.13,22.34-15.69l5.23-20s58.45,27.81,67,124c0,0-21.39,85.55-15,99.09,0,0,5.17,32.09,21.27,40.19l95.69-2s4.94-11.41-8.61-32.08-54.89-24.95-54.89-24.95c2.85-7.13-43.48-149.7-43.48-149.7C353.55,195,382.07,167.92,382.07,167.92Z"/></g></g></svg>