<svg xmlns="http://www.w3.org/2000/svg" viewBox="0 0 207.15 53.72"><defs><style>.cls-1{font-size:16px;font-family:NotoSansKR-Regular-KSCpc-EUC-H, Noto Sans KR;letter-spacing:-0.01em;}.cls-1,.cls-6,.cls-7{fill:#fff;}.cls-2{letter-spacing:-0.02em;}.cls-3{letter-spacing:-0.02em;}.cls-4{letter-spacing:-0.02em;}.cls-5{fill:none;}.cls-7{font-size:19px;font-family:NotoSansKR-Bold-KSCpc-EUC-H, Noto Sans KR;letter-spacing:0.04em;}</style></defs><g id="Layer_2" data-name="Layer 2"><g id="Layer_1-2" data-name="Layer 1"><text class="cls-1" transform="translate(58.59 36.95)">Animal P<tspan class="cls-2" x="65.34" y="0">r</tspan><tspan class="cls-3" x="71.3" y="0">o</tspan><tspan class="cls-4" x="80.61" y="0">t</tspan><tspan x="86.32" y="0">e</tspan><tspan class="cls-2" x="95.1" y="0">c</tspan><tspan x="102.99" y="0">tion </tspan></text><path class="cls-5" d="M28.19,0c.6.14,1.21.26,1.8.44a9.46,9.46,0,0,1,3.34,1.92,1.09,1.09,0,0,0,.72.29,7,7,0,0,1,5,2.26,3.13,3.13,0,0,1,.81,1.93,6.05,6.05,0,0,1-1.37,4.92,6.54,6.54,0,0,1-3.27,1.75,22.26,22.26,0,0,1-6.9.54,1.13,1.13,0,0,1-1.06-1.21,1.14,1.14,0,0,1,1.24-1.06,20.72,20.72,0,0,0,6-.43l.85-.26c1.86-.59,2.39-2.11,2.3-3.76A1.69,1.69,0,0,0,37,6.05a5,5,0,0,0-3.57-1.13,1.45,1.45,0,0,1-1.15-.45,7.2,7.2,0,0,0-4.47-2.18,4.19,4.19,0,0,0-3.27.89A9.55,9.55,0,0,0,21.7,6.5a4.85,4.85,0,0,0-.06,3.74.41.41,0,0,0,.47.33c.74,0,1.49,0,2.33,0-.11-.93-.2-1.83-.33-2.72s-.32-1.73-.48-2.59a1.11,1.11,0,0,1,.9-1.39,1.1,1.1,0,0,1,1.31.86,30.24,30.24,0,0,1,.8,5.52,6.08,6.08,0,0,1-.16,1.53A1.38,1.38,0,0,1,25,12.82c-1.24,0-2.48,0-3.72,0a1.27,1.27,0,0,1-1.24-.69,7,7,0,0,1,.1-7.58,11.81,11.81,0,0,1,4.13-4A7,7,0,0,1,26,.08L26.33,0H0V40H40V0Zm.9,4.93a2.19,2.19,0,0,1,2.24.3,1.39,1.39,0,0,1,.34,1.58c-.24.67-.78,1-1.76,1s-1.79-.58-1.75-1.54A1.3,1.3,0,0,1,29.09,4.93ZM24.2,39.87,17,39.7a1.13,1.13,0,0,1-1.18-1.08,1.16,1.16,0,0,1,1.1-1.19,7.19,7.19,0,0,0,1.29-.26,3.53,3.53,0,0,0,2.42-3.33A12,12,0,0,0,19,26.68C18,24.83,17,23,15.92,21.1a1.57,1.57,0,0,1-.17-1.25A9.43,9.43,0,0,0,15,13.4s0,0-.09-.07c-.3.42-.61.83-.89,1.25a1.29,1.29,0,0,1-1.23.65c-.75,0-1.5,0-2.25,0a1.19,1.19,0,0,1-1.06-.53L8.08,12.89c-.21.38-.41.7-.56,1a8.42,8.42,0,0,0-.26,5.25c.07.32.16.63.26.94a1.3,1.3,0,0,1-.26,1.3,29.3,29.3,0,0,0-3.65,6,11.93,11.93,0,0,0-1.23,5,6.86,6.86,0,0,0,1.14,3.7A2.9,2.9,0,0,0,6,37.54a16,16,0,0,0,4.74-.27,8.45,8.45,0,0,0,1.9-.75,3.18,3.18,0,0,0,1.64-2.21,5.66,5.66,0,0,0,.12-2.49,1.69,1.69,0,0,0-1.43-1.39,1.14,1.14,0,0,0-1.43,1.13,3.56,3.56,0,0,1-.08.57,1.08,1.08,0,0,1-1.21.81,1,1,0,0,1-1-1c0-2.23,1.18-4.06,3.79-3.9a3.58,3.58,0,0,1,2.91,1.69,5,5,0,0,1,.8,2.75,8,8,0,0,1-.8,3.76,6.1,6.1,0,0,1-3.57,2.88A16.24,16.24,0,0,1,6,39.82a5.09,5.09,0,0,1-3.31-1.21,7.38,7.38,0,0,1-2-3.06A10.71,10.71,0,0,1,1,27.89a28.75,28.75,0,0,1,4-7.13,1,1,0,0,0,.18-.88,10.72,10.72,0,0,1,.25-6.67,7.24,7.24,0,0,1,2-2.81,1.18,1.18,0,0,1,1.92.21c.53.71,1,1.42,1.6,2.11a.76.76,0,0,0,.46.24,1.38,1.38,0,0,0,1.65-.82,15.6,15.6,0,0,1,1.12-1.58,1.12,1.12,0,0,1,2,0A12.73,12.73,0,0,1,18.09,20c-.05.26.16.58.3.85a10.38,10.38,0,0,0,1.25-3.56c.17-.93.27-1.87.38-2.8a1.13,1.13,0,0,1,1.19-1,1.09,1.09,0,0,1,1.07,1.14A18.43,18.43,0,0,1,20.5,21.8c-.23.43-.52.83-.79,1.24.7,1.38,1.46,2.7,2.06,4.1a12.57,12.57,0,0,1,.82,8.15,12.22,12.22,0,0,1-.89,2l-.17.3h2.12c.23,0,.47,0,.7,0a1.13,1.13,0,0,1-.15,2.26ZM14.36,20.29A3.17,3.17,0,0,1,11.45,22a3.72,3.72,0,0,1-2.6-1.55,1.08,1.08,0,0,1,.21-1.5,1.16,1.16,0,0,1,1.49,0,9.91,9.91,0,0,0,.82.63.54.54,0,0,0,.79-.14l.26-.34a1.14,1.14,0,0,1,1.94,1.17ZM32.68,39.86a9.79,9.79,0,0,1-4.79-.66,2.77,2.77,0,0,1-1-.81,10.76,10.76,0,0,1-1.9-4,41.14,41.14,0,0,1-1.32-7.12c-.23-2.14-.39-4.3-.57-6.27V19.39a1.11,1.11,0,0,1,1.07-1.14,1.13,1.13,0,0,1,1.19,1.12c.06,1.08.09,2.17.17,3.25a57.44,57.44,0,0,0,1.55,10.76,12.24,12.24,0,0,0,1.24,3.13,1.68,1.68,0,0,0,1.17.85,9,9,0,0,0,2.92.25,1.12,1.12,0,0,1,1.28,1A1.1,1.1,0,0,1,32.68,39.86ZM33,34h-.27a4.43,4.43,0,0,1-4.66-4.75,25,25,0,0,1,.4-3.33c.45-3.05.91-6.09,1.36-9.13.06-.35.1-.69.15-1a1.14,1.14,0,1,1,2.25.33c-.12,1-.26,1.92-.4,2.88q-.6,4-1.22,8c-.08.55-.23,1.1-.26,1.65a6.22,6.22,0,0,0,.13,1.61,2.06,2.06,0,0,0,2.09,1.54H33a1.13,1.13,0,0,1,1.15,1.16A1.09,1.09,0,0,1,33,34Z"/><path class="cls-6" d="M38.51,11.76a6.54,6.54,0,0,1-3.27,1.75,22.26,22.26,0,0,1-6.9.54,1.13,1.13,0,0,1-1.06-1.21,1.14,1.14,0,0,1,1.24-1.06,20.72,20.72,0,0,0,6-.43l.85-.26c1.86-.59,2.39-2.11,2.3-3.76A1.69,1.69,0,0,0,37,6.05a5,5,0,0,0-3.57-1.13,1.45,1.45,0,0,1-1.15-.45,7.2,7.2,0,0,0-4.47-2.18,4.19,4.19,0,0,0-3.27.89A9.55,9.55,0,0,0,21.7,6.5a4.85,4.85,0,0,0-.06,3.74.41.41,0,0,0,.47.33c.74,0,1.49,0,2.33,0-.11-.93-.2-1.83-.33-2.72s-.32-1.73-.48-2.59a1.11,1.11,0,0,1,.9-1.39,1.1,1.1,0,0,1,1.31.86,30.24,30.24,0,0,1,.8,5.52,6.08,6.08,0,0,1-.16,1.53A1.38,1.38,0,0,1,25,12.82c-1.24,0-2.48,0-3.72,0a1.27,1.27,0,0,1-1.24-.69,7,7,0,0,1,.1-7.58,11.81,11.81,0,0,1,4.13-4A7,7,0,0,1,26,.08L26.33,0h1.86c.6.14,1.21.26,1.8.44a9.46,9.46,0,0,1,3.34,1.92,1.09,1.09,0,0,0,.72.29,7,7,0,0,1,5,2.26,3.13,3.13,0,0,1,.81,1.93A6.05,6.05,0,0,1,38.51,11.76Z"/><path class="cls-6" d="M25.39,38.79a1.13,1.13,0,0,1-1.19,1.08L17,39.7a1.13,1.13,0,0,1-1.18-1.08,1.16,1.16,0,0,1,1.1-1.19,7.19,7.19,0,0,0,1.29-.26,3.53,3.53,0,0,0,2.42-3.33A12,12,0,0,0,19,26.68C18,24.83,17,23,15.92,21.1a1.57,1.57,0,0,1-.17-1.25A9.43,9.43,0,0,0,15,13.4s0,0-.09-.07c-.3.42-.61.83-.89,1.25a1.29,1.29,0,0,1-1.23.65c-.75,0-1.5,0-2.25,0a1.19,1.19,0,0,1-1.06-.53L8.08,12.89c-.21.38-.41.7-.56,1a8.42,8.42,0,0,0-.26,5.25c.07.32.16.63.26.94a1.3,1.3,0,0,1-.26,1.3,29.3,29.3,0,0,0-3.65,6,11.93,11.93,0,0,0-1.23,5,6.86,6.86,0,0,0,1.14,3.7A2.9,2.9,0,0,0,6,37.54a16,16,0,0,0,4.74-.27,8.45,8.45,0,0,0,1.9-.75,3.18,3.18,0,0,0,1.64-2.21,5.66,5.66,0,0,0,.12-2.49,1.69,1.69,0,0,0-1.43-1.39,1.14,1.14,0,0,0-1.43,1.13,3.56,3.56,0,0,1-.08.57,1.08,1.08,0,0,1-1.21.81,1,1,0,0,1-1-1c0-2.23,1.18-4.06,3.79-3.9a3.58,3.58,0,0,1,2.91,1.69,5,5,0,0,1,.8,2.75,8,8,0,0,1-.8,3.76,6.1,6.1,0,0,1-3.57,2.88A16.24,16.24,0,0,1,6,39.82a5.09,5.09,0,0,1-3.31-1.21,7.38,7.38,0,0,1-2-3.06A10.71,10.71,0,0,1,1,27.89a28.75,28.75,0,0,1,4-7.13,1,1,0,0,0,.18-.88,10.72,10.72,0,0,1,.25-6.67,7.24,7.24,0,0,1,2-2.81,1.18,1.18,0,0,1,1.92.21c.53.71,1,1.42,1.6,2.11a.76.76,0,0,0,.46.24,1.38,1.38,0,0,0,1.65-.82,15.6,15.6,0,0,1,1.12-1.58,1.12,1.12,0,0,1,2,0A12.73,12.73,0,0,1,18.09,20c-.05.26.16.58.3.85a10.38,10.38,0,0,0,1.25-3.56c.17-.93.27-1.87.38-2.8a1.13,1.13,0,0,1,1.19-1,1.09,1.09,0,0,1,1.07,1.14A18.43,18.43,0,0,1,20.5,21.8c-.23.43-.52.83-.79,1.24.7,1.38,1.46,2.7,2.06,4.1a12.57,12.57,0,0,1,.82,8.15,12.22,12.22,0,0,1-.89,2l-.17.3h2.12c.23,0,.47,0,.7,0A1.12,1.12,0,0,1,25.39,38.79Z"/><path class="cls-6" d="M33.72,38.58a1.1,1.1,0,0,1-1,1.28,9.79,9.79,0,0,1-4.79-.66,2.77,2.77,0,0,1-1-.81,10.76,10.76,0,0,1-1.9-4,41.14,41.14,0,0,1-1.32-7.12c-.23-2.14-.39-4.3-.57-6.27V19.39a1.11,1.11,0,0,1,1.07-1.14,1.13,1.13,0,0,1,1.19,1.12c.06,1.08.09,2.17.17,3.25a57.44,57.44,0,0,0,1.55,10.76,12.24,12.24,0,0,0,1.24,3.13,1.68,1.68,0,0,0,1.17.85,9,9,0,0,0,2.92.25A1.12,1.12,0,0,1,33.72,38.58Z"/><path class="cls-6" d="M34.17,32.85A1.09,1.09,0,0,1,33,34h-.27a4.43,4.43,0,0,1-4.66-4.75,25,25,0,0,1,.4-3.33c.45-3.05.91-6.09,1.36-9.13.06-.35.1-.69.15-1a1.14,1.14,0,1,1,2.25.33c-.12,1-.26,1.92-.4,2.88q-.6,4-1.22,8c-.08.55-.23,1.1-.26,1.65a6.22,6.22,0,0,0,.13,1.61,2.06,2.06,0,0,0,2.09,1.54H33A1.13,1.13,0,0,1,34.17,32.85Z"/><path class="cls-6" d="M14.36,20.29A3.17,3.17,0,0,1,11.45,22a3.72,3.72,0,0,1-2.6-1.55,1.08,1.08,0,0,1,.21-1.5,1.16,1.16,0,0,1,1.49,0,9.91,9.91,0,0,0,.82.63.54.54,0,0,0,.79-.14l.26-.34a1.14,1.14,0,0,1,1.94,1.17Z"/><path class="cls-6" d="M31.67,6.81c-.24.67-.78,1-1.76,1s-1.79-.58-1.75-1.54a1.3,1.3,0,0,1,.93-1.3,2.19,2.19,0,0,1,2.24.3A1.39,1.39,0,0,1,31.67,6.81Z"/><text class="cls-7" transform="translate(43.84 18.39)">동물보호관리시스템</text></g></g></svg>